<?xml version="1.0" standalone="no"?>
<!DOCTYPE svg PUBLIC "-//W3C//DTD SVG 20010904//EN"
 "http://www.w3.org/TR/2001/REC-SVG-20010904/DTD/svg10.dtd">
<svg version="1.0" xmlns="http://www.w3.org/2000/svg"
 width="586.000000pt" height="503.000000pt" viewBox="0 0 586.000000 503.000000"
 preserveAspectRatio="xMidYMid meet">

<g transform="translate(0.000000,503.000000) scale(0.100000,-0.100000)"
fill="#000000" stroke="none">
<path d="M2728 4979 c-434 -26 -915 -157 -1280 -347 -689 -361 -1154 -911
-1332 -1577 -53 -198 -60 -262 -59 -540 0 -288 8 -356 63 -554 113 -405 305
-728 623 -1050 409 -413 998 -712 1607 -815 237 -40 337 -48 580 -48 318 -1
534 27 845 107 486 125 956 382 1288 703 161 154 228 233 357 414 184 258 327
619 375 944 29 194 15 604 -25 728 -5 17 -19 71 -30 120 -46 197 -178 486
-309 676 -103 150 -215 283 -347 411 -109 106 -148 139 -244 211 -245 181
-472 305 -780 423 -264 102 -609 173 -945 195 -166 11 -202 11 -387 -1z m2201
-1044 c62 -32 89 -89 90 -193 1 -48 -46 -94 -91 -90 -32 3 -32 3 -44 81 -7 43
-15 81 -18 84 -3 3 -31 -13 -63 -34 -84 -57 -204 -186 -301 -323 -18 -25 -48
-65 -67 -90 -19 -25 -41 -58 -50 -75 -8 -16 -35 -55 -60 -85 -24 -30 -44 -60
-45 -66 0 -6 -20 -39 -45 -75 -25 -35 -48 -80 -51 -99 -4 -19 -11 -41 -17 -48
-11 -14 5 -32 30 -32 19 0 45 -46 41 -72 -3 -22 -7 -23 -77 -23 l-74 0 -19
-60 c-11 -33 -24 -61 -29 -63 -5 -2 -9 -11 -9 -20 0 -9 -6 -28 -13 -42 -7 -14
-19 -45 -27 -70 -8 -25 -20 -56 -27 -70 -7 -14 -13 -33 -13 -42 0 -9 -5 -20
-10 -23 -6 -4 -8 -14 -5 -24 2 -9 -4 -33 -14 -53 -11 -20 -24 -64 -30 -99 -6
-35 -17 -100 -25 -144 -8 -44 -15 -98 -15 -121 -1 -52 33 -105 74 -116 79 -21
216 74 355 247 164 202 274 360 302 429 11 28 23 55 27 61 5 5 16 42 26 80 10
39 22 74 27 80 4 5 8 16 8 26 0 9 9 28 20 42 11 14 20 32 20 41 0 51 88 166
127 166 51 0 113 -51 113 -92 0 -10 -12 -37 -26 -60 -36 -57 -174 -335 -174
-351 0 -7 -9 -32 -20 -55 -11 -22 -20 -46 -20 -53 0 -6 -11 -24 -25 -41 -14
-16 -25 -40 -25 -53 0 -13 -8 -31 -17 -40 -9 -10 -20 -36 -24 -59 -4 -22 -14
-63 -22 -91 -8 -27 -33 -113 -56 -190 -44 -147 -71 -305 -71 -410 0 -72 36
-224 73 -306 14 -31 41 -74 61 -96 37 -42 48 -83 21 -83 -62 0 -139 80 -194
201 -90 199 -95 409 -20 749 23 103 23 99 -3 65 -12 -16 -63 -72 -113 -123
-143 -148 -243 -192 -360 -157 -49 14 -71 29 -132 87 -61 60 -73 77 -78 112
-6 43 7 156 24 216 8 28 8 22 4 -34 -5 -51 -3 -67 5 -62 7 4 12 19 12 32 0 42
108 352 156 449 24 50 44 95 44 102 0 14 32 77 43 81 14 7 7 52 -8 52 -12 0
-33 -37 -68 -120 -4 -8 -4 1 -1 20 3 19 10 39 15 45 5 5 9 20 9 33 0 22 -3 23
-42 18 -24 -3 -107 -11 -184 -17 l-142 -12 -21 -111 c-50 -270 -79 -791 -55
-1009 16 -148 34 -228 64 -287 26 -50 25 -60 -3 -60 -45 0 -146 145 -132 190
3 11 0 20 -11 24 -12 5 -14 14 -9 46 5 28 3 40 -5 40 -9 0 -10 16 -5 59 4 37
3 61 -4 65 -7 4 -6 16 1 37 8 24 7 33 -6 48 -13 15 -16 42 -14 172 l2 154 6
-125 c4 -91 7 -117 14 -98 4 16 6 34 3 41 -8 21 29 455 53 622 5 39 12 93 16
122 l7 52 -54 -5 c-94 -8 -197 -25 -269 -45 -38 -10 -78 -19 -89 -19 -11 0
-26 -6 -33 -14 -17 -16 -211 -505 -262 -661 -48 -143 -85 -267 -102 -333 -7
-29 -18 -60 -25 -68 -25 -31 -109 6 -109 47 0 40 78 300 115 384 7 17 37 89
66 160 28 72 78 195 111 274 32 78 58 145 58 147 0 9 -43 2 -150 -26 -163 -42
-285 -61 -313 -51 -30 12 -84 65 -92 92 -11 33 8 43 50 29 44 -15 135 -7 251
21 44 11 103 24 130 29 27 5 79 15 117 22 76 15 86 25 126 133 12 33 28 67 35
75 7 8 39 69 71 135 91 187 235 444 324 579 25 38 55 84 66 101 11 18 45 60
75 94 51 57 57 62 81 53 14 -6 42 -26 62 -45 43 -40 46 -67 21 -212 -8 -49
-19 -117 -25 -149 -5 -33 -13 -64 -17 -70 -3 -6 -9 -31 -13 -56 -10 -75 -51
-274 -60 -295 -7 -19 -10 -36 -25 -164 l-7 -54 69 7 c38 4 127 11 199 16 126
8 130 9 152 37 13 15 23 34 23 42 0 8 3 12 6 8 4 -3 2 -20 -4 -36 -6 -18 -7
-33 -2 -36 16 -10 47 17 60 54 7 20 23 48 36 63 12 15 31 51 42 80 11 29 40
83 64 120 60 93 102 159 111 178 4 8 16 29 27 45 10 17 35 63 55 103 20 39 41
72 46 72 5 0 16 16 24 36 20 47 19 51 -4 23 l-18 -23 -12 23 c-11 20 -10 23
17 33 20 8 38 26 51 53 31 62 130 155 188 176 54 20 149 17 192 -6z m-583
-498 c-29 -40 -76 -108 -105 -152 -28 -44 -51 -74 -51 -67 0 15 45 99 65 122
24 28 103 150 117 180 12 28 13 28 20 9 6 -16 -4 -37 -46 -92z m-2839 -98 c23
-8 21 -11 -44 -67 -120 -103 -169 -170 -204 -277 -12 -35 -26 -62 -30 -59 -36
22 -57 166 -35 237 45 148 177 218 313 166z m228 -60 c39 -11 144 -104 131
-116 -3 -3 -47 -10 -98 -14 -170 -16 -305 -71 -408 -168 -30 -28 -56 -49 -58
-46 -9 9 9 75 34 122 48 91 153 178 258 215 60 20 87 22 141 7z m-604 -1 c1
-2 4 -74 8 -160 4 -104 11 -162 19 -170 21 -21 14 -24 -47 -20 -83 6 -126 -17
-255 -136 l-105 -97 -1 -76 c0 -60 -4 -79 -17 -91 -39 -33 -42 -30 -27 24 7
29 14 78 14 108 0 48 3 57 24 70 13 8 54 44 91 79 66 64 66 64 46 84 -24 24
-151 36 -200 19 -80 -28 3 57 87 89 47 17 71 20 139 16 77 -4 82 -4 73 13 -26
48 2 152 51 196 34 30 95 62 100 52z m2989 -202 c0 -3 -4 -8 -10 -11 -5 -3
-10 -1 -10 4 0 6 5 11 10 11 6 0 10 -2 10 -4z m-2277 -21 c188 -40 313 -169
325 -335 5 -76 -17 -193 -48 -250 l-18 -35 -7 30 c-49 227 -192 371 -423 426
-73 18 -106 20 -207 16 l-120 -6 50 45 c118 106 279 145 448 109z m2234 -57
c-3 -8 -6 -5 -6 6 -1 11 2 17 5 13 3 -3 4 -12 1 -19z m-2376 -182 c97 -23 175
-65 227 -120 66 -70 87 -128 87 -241 0 -81 -3 -97 -32 -158 -18 -37 -75 -130
-128 -206 -101 -148 -110 -173 -80 -231 8 -16 23 -34 32 -39 15 -8 15 -10 3
-11 -24 0 -58 28 -76 62 -24 47 -28 167 -10 320 38 325 11 472 -97 538 -41 25
-47 17 -14 -18 67 -70 80 -202 52 -519 -29 -320 -10 -442 81 -522 25 -22 58
-43 75 -46 84 -19 1 -49 -136 -49 -118 -1 -190 19 -268 73 -77 54 -97 90 -97
171 0 82 23 161 97 330 88 201 121 293 134 377 10 69 10 86 -5 131 -21 63 -84
122 -158 149 l-52 18 35 7 c50 10 265 0 330 -16z m-312 -92 c60 -53 76 -106
75 -244 0 -94 -5 -128 -25 -185 l-24 -70 -90 -1 c-71 -1 -99 -5 -131 -22 -48
-24 -114 -97 -114 -124 0 -23 -17 -24 -24 0 -3 9 -8 44 -11 77 -3 33 -8 69
-10 80 -4 19 1 21 73 20 124 0 207 48 259 149 46 90 41 222 -12 306 -14 22
-25 42 -25 45 0 14 24 2 59 -31z m-426 -91 l-68 -68 -7 35 c-4 19 -7 47 -7 62
-1 29 10 33 107 36 l42 2 -67 -67z m2484 10 c-3 -10 -5 -4 -5 12 0 17 2 24 5
18 2 -7 2 -21 0 -30z m457 -43 c-10 -33 -25 -60 -31 -60 -17 0 -16 10 2 34 8
11 15 32 15 46 0 25 19 55 29 45 2 -3 -4 -32 -15 -65z m-477 -102 c-2 -13 -4
-5 -4 17 -1 22 1 32 4 23 2 -10 2 -28 0 -40z m370 -170 c-3 -8 -6 -5 -6 6 -1
11 2 17 5 13 3 -3 4 -12 1 -19z m-3117 -37 c0 -6 -4 -12 -9 -15 -14 -9 -20
-71 -11 -112 11 -50 73 -109 131 -124 48 -13 107 -2 129 25 14 17 36 20 44 6
3 -5 -2 -27 -12 -50 -14 -34 -20 -40 -37 -35 -11 4 -38 7 -60 8 -35 1 -40 -2
-37 -19 2 -11 20 -39 39 -62 43 -54 69 -55 117 -6 19 20 38 34 42 31 9 -9 27
-179 20 -186 -12 -12 -174 110 -253 190 -45 46 -120 135 -167 198 l-85 115 57
21 c64 24 92 29 92 15z"/>
<path d="M3554 3772 c-9 -6 -44 -68 -44 -79 0 -1 9 -3 19 -3 23 0 40 22 23 28
-14 4 -16 32 -3 32 5 0 11 7 15 15 6 17 5 18 -10 7z"/>
<path d="M3587 3661 c-74 -95 -162 -228 -205 -309 -39 -73 -94 -169 -150 -262
-6 -8 -13 -12 -17 -8 -4 4 -3 13 3 20 5 7 18 38 28 68 10 30 28 63 40 73 13 9
25 34 29 55 3 20 19 52 34 69 16 18 34 48 42 65 7 18 16 35 20 38 4 3 1 16 -7
30 l-15 25 7 -24 c5 -20 3 -23 -11 -18 -12 5 -15 2 -13 -11 2 -9 -6 -34 -19
-54 -13 -21 -23 -42 -23 -48 0 -5 -4 -10 -10 -10 -5 0 -10 -4 -10 -10 0 -5 -9
-19 -19 -29 -11 -11 -23 -36 -27 -55 -3 -20 -10 -36 -15 -36 -5 0 -9 -7 -9
-15 0 -8 -4 -15 -10 -15 -5 0 -10 -7 -10 -15 0 -8 -4 -15 -10 -15 -5 0 -10 -8
-10 -18 0 -10 -9 -24 -20 -32 -14 -10 -18 -21 -13 -38 4 -17 2 -23 -6 -18 -7
5 -11 0 -11 -13 0 -12 -4 -21 -10 -21 -5 0 -10 -7 -10 -15 0 -8 -3 -15 -7 -15
-11 0 -34 -51 -28 -61 10 -15 -27 -90 -41 -85 -9 3 -14 -2 -14 -14 0 -10 -5
-22 -10 -25 -15 -9 -2 -25 21 -25 14 0 28 19 54 75 20 41 40 75 45 75 10 0 0
-29 -35 -102 -10 -21 -16 -41 -12 -44 3 -4 61 3 129 14 68 12 143 24 168 28
52 7 70 19 70 45 0 11 5 19 10 19 6 0 10 -9 10 -20 0 -11 4 -20 8 -20 5 0 16
42 25 93 28 157 30 180 18 173 -6 -4 -11 -27 -11 -52 0 -24 -4 -44 -10 -44 -5
0 -10 -12 -11 -27 0 -16 -4 -37 -9 -48 -18 -42 -10 53 14 166 13 63 27 137 30
164 4 28 13 68 20 90 8 22 19 72 25 110 6 39 17 101 25 138 7 37 10 69 7 71
-3 2 -19 -13 -34 -33z m-386 -624 c-13 -12 -20 -15 -16 -7 14 26 28 41 33 35
3 -3 -5 -16 -17 -28z"/>
<path d="M3470 3594 c0 -8 5 -12 10 -9 6 3 10 10 10 16 0 5 -4 9 -10 9 -5 0
-10 -7 -10 -16z"/>
<path d="M3556 3235 c-3 -9 -6 -29 -6 -43 0 -27 1 -27 17 6 11 22 13 36 6 43
-7 7 -12 5 -17 -6z"/>
<path d="M3795 2860 c-11 -5 -47 -9 -80 -10 -77 -3 -121 -12 -115 -25 5 -11
12 -11 135 -2 76 5 219 26 213 32 -10 8 -136 12 -153 5z"/>
<path d="M3380 2808 c-149 -21 -300 -56 -250 -58 33 -1 267 30 310 41 90 23
55 33 -60 17z"/>
<path d="M2957 2642 c-10 -10 -17 -26 -17 -35 0 -9 -4 -17 -9 -17 -5 0 -12
-18 -16 -40 -4 -25 -12 -40 -21 -40 -10 0 -13 -7 -8 -25 3 -14 2 -25 -4 -25
-5 0 -13 -15 -16 -34 -4 -19 -14 -37 -23 -40 -13 -5 -14 -9 -4 -19 9 -9 16 -7
31 13 11 14 20 31 20 38 0 8 10 27 21 44 12 16 21 42 21 56 0 15 10 38 22 52
30 36 48 69 41 80 -9 15 -20 12 -38 -8z"/>
<path d="M3899 2428 c-6 -24 -17 -61 -25 -83 -19 -59 -25 -95 -17 -95 10 0 33
48 33 67 0 8 7 30 16 51 18 41 25 102 13 102 -5 0 -13 -19 -20 -42z"/>
<path d="M2816 2296 c-10 -15 -12 -27 -6 -31 6 -3 15 6 20 21 14 36 7 41 -14
10z"/>
<path d="M3832 2223 c-11 -20 -42 -153 -42 -177 0 -9 6 -13 14 -10 7 3 14 16
14 29 0 13 7 56 17 95 17 70 16 99 -3 63z"/>
<path d="M4542 2140 c0 -14 2 -19 5 -12 2 6 2 18 0 25 -3 6 -5 1 -5 -13z"/>
<path d="M4472 2090 c0 -14 2 -19 5 -12 2 6 2 18 0 25 -3 6 -5 1 -5 -13z"/>
<path d="M4510 2055 c0 -8 2 -15 4 -15 2 0 6 7 10 15 3 8 1 15 -4 15 -6 0 -10
-7 -10 -15z"/>
<path d="M4441 1989 c-7 -16 -11 -35 -8 -41 2 -7 9 4 16 25 16 46 10 57 -8 16z"/>
<path d="M4487 2005 c-9 -23 11 -28 23 -5 8 16 8 20 -4 20 -7 0 -16 -7 -19
-15z"/>
<path d="M4470 1940 c0 -5 5 -10 10 -10 6 0 10 5 10 10 0 6 -4 10 -10 10 -5 0
-10 -4 -10 -10z"/>
<path d="M4462 1888 c-7 -7 -12 -23 -12 -37 -1 -31 -25 -66 -39 -56 -7 4 -11
-7 -11 -30 0 -20 -5 -45 -11 -57 -11 -20 -5 -68 9 -68 14 1 53 99 57 145 2 27
9 61 16 77 13 32 9 44 -9 26z"/>
<path d="M3401 1854 c0 -11 3 -14 6 -6 3 7 2 16 -1 19 -3 4 -6 -2 -5 -13z"/>
<path d="M4387 1587 c-7 -52 0 -87 19 -87 8 0 14 5 14 10 0 6 -4 10 -10 10 -5
0 -10 7 -10 15 0 8 4 15 9 15 13 0 8 73 -6 77 -5 2 -13 -16 -16 -40z"/>
</g>
</svg>
